<svg width="734" height="325" viewBox="0 0 734 325" fill="none" xmlns="http://www.w3.org/2000/svg">
<path d="M15.7597 271.84V283.18H34.7697V290.72H15.7597V309.12H6.92969V263.77H36.9397V271.85H15.7597V271.84Z" fill="#4F3EC5"/>
<path d="M61.9995 272.52C71.3695 272.52 78.7695 278.36 78.7695 291.39C78.7695 302.86 72.3895 309.86 61.9995 309.86C51.6095 309.86 45.2295 302.87 45.2295 291.39C45.2295 278.36 52.6295 272.52 61.9995 272.52ZM61.9995 301.98C67.7695 301.98 69.6695 299.2 69.6695 293.56V288.81C69.6695 283.18 67.6295 280.39 61.9995 280.39C56.3695 280.39 54.3295 283.17 54.3295 288.81V293.56C54.3195 299.27 56.2295 301.98 61.9995 301.98Z" fill="#4F3EC5"/>
<path d="M105.509 272.52C114.879 272.52 122.279 278.36 122.279 291.39C122.279 302.86 115.899 309.86 105.509 309.86C95.1193 309.86 88.7393 302.87 88.7393 291.39C88.7393 278.36 96.1393 272.52 105.509 272.52ZM105.509 301.98C111.279 301.98 113.179 299.2 113.179 293.56V288.81C113.179 283.18 111.139 280.39 105.509 280.39C99.8793 280.39 97.8393 283.17 97.8393 288.81V293.56C97.8393 299.27 99.7393 301.98 105.509 301.98Z" fill="#4F3EC5"/>
<path d="M164.91 258.47V309.11H158.39L156.22 304.02H156.02C154.8 308.03 151.13 309.86 145.84 309.86C137.76 309.86 132.26 304.02 132.26 291.33C132.26 278.02 138.98 272.53 147.53 272.53C151.53 272.53 154.18 273.34 155.61 274.02H155.81V258.47H164.91ZM155.82 300.22V280.67C154.53 280.53 152.15 280.26 148.83 280.26C142.99 280.26 141.43 282.16 141.43 288.95V294.24C141.43 300.28 143.06 302.05 148.29 302.05C152.08 302.05 154.39 301.03 155.82 300.22Z" fill="#4F3EC5"/>
<path d="M194.51 272.52C198.11 272.52 201.37 273.13 202.72 273.61V281.01L202.38 281.35C200.21 280.88 197.22 280.54 194.64 280.54C187.85 280.54 185.54 282.71 185.54 289.5V292.83C185.54 299.82 187.44 301.86 194.43 301.86C197.55 301.86 201.22 301.18 203.39 300.64L203.73 300.91V308.31C201.69 309.06 198.23 309.87 193.21 309.87C181.13 309.87 176.37 303.22 176.37 291.2C176.39 278.22 182.84 272.52 194.51 272.52Z" fill="#4F3EC5"/>
<path d="M228.87 272.52C238.24 272.52 245.64 278.36 245.64 291.39C245.64 302.86 239.26 309.86 228.87 309.86C218.48 309.86 212.1 302.87 212.1 291.39C212.1 278.36 219.5 272.52 228.87 272.52ZM228.87 301.98C234.64 301.98 236.54 299.2 236.54 293.56V288.81C236.54 283.18 234.5 280.39 228.87 280.39C223.24 280.39 221.2 283.17 221.2 288.81V293.56C221.19 299.27 223.1 301.98 228.87 301.98Z" fill="#4F3EC5"/>
<path d="M287.319 273.27V309.11H280.599L278.499 303.88H278.299C277.009 307.89 273.409 309.85 268.249 309.85C261.119 309.85 256.569 305.84 256.569 296.68V273.26H265.669V297.29C265.669 300.55 267.229 301.5 271.239 301.5C274.019 301.5 276.669 300.55 278.229 299.4V273.26H287.319V273.27Z" fill="#4F3EC5"/>
<path d="M321.599 273.2V281.48L321.189 281.82H319.019C313.999 281.82 311.279 282.7 309.379 283.72V309.11H300.279V273.27H306.319L308.969 278.56H309.309C310.939 274.62 314.199 272.72 318.609 272.72C319.969 272.72 321.129 273 321.599 273.2Z" fill="#4F3EC5"/>
<path d="M354.53 301.58V308.98C353.51 309.25 350.12 309.86 346.99 309.86C337.69 309.86 334.43 304.43 334.43 296.28V280.94H329.47V273.27H334.43V266.41L340.2 264.03H343.46V273.26H354.12V280.93H343.46V297.09C343.46 300.35 344 301.57 348.35 301.57C350.45 301.57 352.83 301.43 354.26 301.23L354.53 301.58Z" fill="#4F3EC5"/>
<path d="M400.83 272.52C410.2 272.52 417.6 278.36 417.6 291.39C417.6 302.86 411.22 309.86 400.83 309.86C390.44 309.86 384.06 302.87 384.06 291.39C384.06 278.36 391.46 272.52 400.83 272.52ZM400.83 301.98C406.6 301.98 408.5 299.2 408.5 293.56V288.81C408.5 283.18 406.46 280.39 400.83 280.39C395.2 280.39 393.16 283.17 393.16 288.81V293.56C393.16 299.27 395.06 301.98 400.83 301.98Z" fill="#4F3EC5"/>
<path d="M459.82 285.28V309.11H450.72V284.74C450.72 282.3 449.91 280.87 445.02 280.87C442.51 280.87 439.66 281.55 438.16 282.5V309.11H429.06V273.27H435.58L437.96 278.56H438.3C439.93 274.83 442.85 272.52 448.41 272.52C455.27 272.52 459.82 276.19 459.82 285.28Z" fill="#4F3EC5"/>
<path d="M522.82 288.88V309.11H516.44L514.13 304.09H513.93C512.71 308.03 509.31 309.86 503.34 309.86C495.74 309.86 491.729 305.52 491.729 298.73C491.729 292.08 495.329 287.53 504.289 287.53C509.039 287.53 512.499 288.28 513.789 288.55H513.99V286.04C513.99 281.49 511.14 280.2 504.08 280.2C499.94 280.2 495.19 280.95 493.9 281.29L493.56 280.95V273.69C496.07 273.08 500.009 272.54 504.289 272.54C518.139 272.52 522.82 278.16 522.82 288.88ZM514 300.76V293.7H504.159C501.649 293.7 500.56 294.85 500.56 296.96V299C500.56 301.58 501.65 302.6 505.45 302.6H506.33C509.72 302.59 512.5 301.71 514 300.76Z" fill="#4F3EC5"/>
<path d="M566.07 285.28V309.11H556.97V284.74C556.97 282.3 556.16 280.87 551.27 280.87C548.76 280.87 545.91 281.55 544.41 282.5V309.11H535.31V273.27H541.83L544.21 278.56H544.55C546.18 274.83 549.1 272.52 554.66 272.52C561.52 272.52 566.07 276.19 566.07 285.28Z" fill="#4F3EC5"/>
<path d="M639.79 308.64L639.45 309.12H630.01L626.48 298.6H608.97L605.37 309.12H596L595.66 308.64L611.95 263.77H623.49L639.79 308.64ZM624.11 291.6L623.7 290.45C621.73 284.95 619.83 278.71 617.93 272.32H617.45C615.62 278.7 613.72 284.95 611.75 290.45L611.34 291.6H624.11Z" fill="#4F3EC5"/>
<path d="M682.09 290.58C682.09 303.68 676.39 309.86 667.97 309.86C661.79 309.86 659.69 307.69 658.06 304.7L657.79 304.84C658.13 306.47 658.47 310.07 658.47 312.38V324.33H649.37V273.28H655.89L658.2 278.57H658.54C660.3 274.97 663.09 272.53 668.72 272.53C675.5 272.52 682.09 277.41 682.09 290.58ZM672.86 288.13C672.86 281.55 670.89 280.25 665.66 280.25C663.35 280.25 660.03 280.93 658.46 281.81V300.55C659.27 301.09 661.85 302.11 665.45 302.11C670.95 302.11 672.85 299.8 672.85 293.22V288.13H672.86Z" fill="#4F3EC5"/>
<path d="M726.22 290.58C726.22 303.68 720.52 309.86 712.1 309.86C705.92 309.86 703.82 307.69 702.19 304.7L701.92 304.84C702.26 306.47 702.6 310.07 702.6 312.38V324.33H693.5V273.28H700.02L702.33 278.57H702.67C704.43 274.97 707.22 272.53 712.85 272.53C719.63 272.52 726.22 277.41 726.22 290.58ZM716.98 288.13C716.98 281.55 715.01 280.25 709.78 280.25C707.47 280.25 704.15 280.93 702.58 281.81V300.55C703.39 301.09 705.97 302.11 709.57 302.11C715.07 302.11 716.97 299.8 716.97 293.22V288.13H716.98Z" fill="#4F3EC5"/>
<path d="M176.09 174.27V217.97H164.02H0V0.0100098H164.02H176.09V61.67H103.38V78.36H176.09V157.6C169.49 157.18 162.8 156.42 156.02 155.3C127.07 150.51 107.33 140.73 107.13 140.63L99.62 155.53C100.49 155.97 121.4 166.39 152.69 171.66C160.55 172.98 168.36 173.84 176.09 174.27ZM295.99 78.35V61.66H369.05V0.0100098H192.77V157.9C217.26 157.21 240.35 151.45 261.72 140.64L269.25 155.53C245.86 167.36 219.92 173.75 192.77 174.52V217.98H369.04V78.35H295.99Z" fill="#4F3EC5"/>
<path d="M477.95 75.41V100.75H402.09V0.0100098H477.05V25.35H435.12V39.53H472.82V60.19H435.12V75.42H477.95V75.41Z" fill="#4F3EC5"/>
<path d="M570.77 58.22V100.75H547.39L541.06 90.04H540.46C537.29 98.49 530.96 102.41 517.54 102.41C500.35 102.41 492.5 92.61 492.5 77.68C492.5 62.75 499.74 52.49 520.55 52.49C530.35 52.49 537.29 54.15 539.85 55.2H540.3V50.98C540.3 44.8 536.83 42.68 519.94 42.68C510.74 42.68 500.18 44.04 497.32 44.64L496.57 43.89V21.88C502.75 20.67 513.16 19.47 523.42 19.47C559.46 19.46 570.77 33.34 570.77 58.22ZM540.3 79.64V68.78H527.63C523.86 68.78 522.5 70.59 522.5 73.46V77.23C522.5 80.7 524.01 82.36 528.83 82.36H530.34C534.42 82.35 538.19 81.15 540.3 79.64Z" fill="#4F3EC5"/>
<path d="M645.98 74.81V100.45C643.42 101.05 634.07 102.41 626.07 102.41C600.43 102.41 592.74 90.95 592.74 70.29V47.06H582.79V21.12H592.74V6.49L613.25 0H623.81V21.11H645.53V47.05H623.81V67.71C623.81 72.69 625.32 74.65 632.56 74.65C637.08 74.65 642.51 74.5 645.38 74.2L645.98 74.81Z" fill="#4F3EC5"/>
<path d="M450.35 115.87C462.57 115.87 472.67 117.08 477.35 117.83V141.66L476.75 142.26C471.02 141.81 460.91 141.2 452.32 141.2C436.18 141.2 433.32 143.16 433.32 147.69V148.75C433.32 152.22 434.38 153.58 444.48 155.08L456.39 157.04C474.04 159.6 483.24 168.2 483.24 184.79C483.24 207.41 472.83 219.33 432.11 219.33C416.73 219.33 405.42 217.97 401.19 217.22V192.64L401.79 192.19C410.39 193.25 420.64 194 431.05 194C446.89 194 449.75 192.04 449.75 186.76V185.55C449.75 181.63 448.84 180.12 435.72 178.16L423.35 176.2C408.72 174.09 399.82 166.09 399.82 148.9C399.83 128.09 411.44 115.87 450.35 115.87Z" fill="#4F3EC5"/>
<path d="M575.14 138.34V217.97H551.16L545.43 205.75H544.68C541.51 214.65 533.82 219.62 521.61 219.62C505.47 219.62 495.67 210.12 495.67 190.36V138.33H526.89V185.38C526.89 190.06 529 191.56 534.43 191.56C538.35 191.56 541.82 190.5 544.08 189.15V138.33H575.14V138.34Z" fill="#4F3EC5"/>
<path d="M645.98 138.34V167.45L645.07 168.36C643.26 168.21 641.6 168.21 639.94 168.21C632.1 168.21 625.761 168.96 621.091 170.02V217.98H590.021V138.35H612.49L618.82 150.72H619.42C622.29 141.52 629.52 137.45 639.48 137.45C642.36 137.44 644.92 137.89 645.98 138.34Z" fill="#4F3EC5"/>
<path d="M687.01 185.39V188.71C687.01 195.04 690.03 197.46 704.96 197.46C717.03 197.46 726.38 196.4 730.3 195.65L730.9 196.25V216.61C725.62 217.97 714.61 219.63 701.79 219.63C666.95 219.63 656.7 205.91 656.7 178.61C656.7 149.65 670.57 136.68 698.17 136.68C721.7 136.68 733.61 147.39 733.61 169.11V185.4H687.01V185.39ZM687.01 167.6V169.26H705.26V163.83C705.26 158.85 703.75 156.89 697.27 156.89H696.21C688.67 156.89 687.01 160.21 687.01 167.6Z" fill="#4F3EC5"/>
<path d="M710.41 50.3C709.12 50.3 707.83 50.3 706.54 50.3C705.89 50.21 705.23 50.14 704.59 50.03C697.7 48.83 692.12 45.47 688.03 39.78C684.05 34.23 682.59 28 683.64 21.27C684.72 14.36 688.17 8.77999 693.88 4.70999C699.72 0.549993 706.23 -0.830007 713.27 0.499993C718.94 1.56999 723.65 4.34999 727.45 8.67999C730.37 12.02 732.26 15.87 733.12 20.21C733.32 21.21 733.45 22.22 733.61 23.23C733.61 24.52 733.61 25.81 733.61 27.1C733.57 27.25 733.52 27.4 733.49 27.56C733.34 28.53 733.26 29.52 733.05 30.47C731.85 35.89 729.18 40.45 724.99 44.11C721.62 47.05 717.75 48.97 713.36 49.82C712.39 50.01 711.4 50.14 710.41 50.3ZM708.51 3.88999C696.68 3.96999 687.31 13.3 687.23 24.99C687.15 36.92 696.61 46.32 708.29 46.41C720.24 46.5 729.66 37.01 729.72 25.3C729.8 13.38 720.3 3.99999 708.51 3.88999Z" fill="#4F3EC5"/>
<path d="M714.92 28.64C716 31.35 717.07 34.03 718.16 36.76C716.9 36.76 715.72 36.78 714.54 36.74C714.37 36.73 714.15 36.45 714.07 36.24C713.16 34.01 712.27 31.78 711.39 29.53C711.25 29.16 711.08 29.01 710.66 29.01C708.67 29.04 706.68 29.02 704.65 29.02C704.65 31.6 704.65 34.13 704.65 36.7C703.35 36.7 702.1 36.7 700.8 36.7C700.8 29.02 700.8 21.32 700.8 13.58C701 13.57 701.19 13.55 701.38 13.55C705 13.55 708.63 13.58 712.25 13.54C716.7 13.49 720.51 17.06 720.05 22.05C719.75 25.23 717.99 27.42 714.92 28.64ZM704.64 25.16C707.34 25.16 710 25.25 712.64 25.13C714.79 25.03 716.23 23.33 716.21 21.25C716.19 19.1 714.53 17.45 712.37 17.43C710.42 17.41 708.47 17.43 706.51 17.43C705.89 17.43 705.27 17.43 704.63 17.43C704.64 20.02 704.64 22.55 704.64 25.16Z" fill="#4F3EC5"/>
</svg>
